<svg width="39" height="38" viewBox="0 0 39 38" fill="none" xmlns="http://www.w3.org/2000/svg">
<path d="M19.5022 1.63295e-06C8.72718 -0.00435917 0 8.72596 0 19.5015C0 28.0225 5.45939 35.2658 13.0625 37.9259C14.0864 38.1832 13.9295 37.4549 13.9295 36.9578V33.5782C8.01698 34.2715 7.77734 30.3555 7.38085 29.7014C6.57915 28.3321 4.68383 27.9832 5.25025 27.3291C6.59658 26.6358 7.96905 27.5036 9.55938 29.854C10.7096 31.5591 12.9535 31.2713 14.0907 30.9878C14.3391 29.963 14.8706 29.0473 15.6026 28.3365C9.47659 27.2375 6.92336 23.496 6.92336 19.048C6.92336 16.8894 7.63356 14.9052 9.02782 13.3048C8.13898 10.6665 9.1106 8.40762 9.24131 8.07184C11.7728 7.84508 14.4044 9.88593 14.6092 10.0473C16.047 9.65917 17.6896 9.45421 19.5283 9.45421C21.3757 9.45421 23.0227 9.66789 24.4736 10.0604C24.9659 9.68534 27.4059 7.93229 29.7587 8.14597C29.885 8.48176 30.8349 10.6883 29.9983 13.2917C31.41 14.8965 32.1289 16.8981 32.1289 19.0611C32.1289 23.5178 29.5583 27.2637 23.4148 28.3452C23.941 28.8631 24.3588 29.4808 24.6439 30.1621C24.9289 30.8435 25.0754 31.5749 25.0749 32.3135V37.2194C25.1097 37.6119 25.0749 38 25.7284 38C33.4448 35.3966 39 28.101 39 19.5059C39 8.72596 30.2685 1.63295e-06 19.5022 1.63295e-06Z" fill="white"/>
</svg>
