<svg width="39" height="39" viewBox="0 0 39 39" fill="none" xmlns="http://www.w3.org/2000/svg">
<path d="M37.44 0H1.56C0.697125 0 0 0.697125 0 1.56V37.44C0 38.3029 0.697125 39 1.56 39H37.44C38.3029 39 39 38.3029 39 37.44V1.56C39 0.697125 38.3029 0 37.44 0ZM11.5684 33.2329H5.78175V14.6201H11.5684V33.2329ZM8.6775 12.0754C8.01414 12.0754 7.36568 11.8787 6.81412 11.5101C6.26255 11.1416 5.83266 10.6178 5.57881 10.0049C5.32495 9.39203 5.25853 8.71765 5.38795 8.06704C5.51736 7.41643 5.8368 6.8188 6.30586 6.34974C6.77493 5.88067 7.37255 5.56124 8.02317 5.43182C8.67378 5.30241 9.34816 5.36883 9.96102 5.62268C10.5739 5.87654 11.0977 6.30643 11.4662 6.85799C11.8348 7.40955 12.0315 8.05802 12.0315 8.72137C12.0266 10.5739 10.5251 12.0754 8.6775 12.0754ZM33.2329 33.2329H27.4511V24.18C27.4511 22.0204 27.4121 19.2465 24.4433 19.2465C21.4354 19.2465 20.9722 21.5962 20.9722 24.024V33.2329H15.1954V14.6201H20.7431V17.1649H20.8211C21.5914 15.7024 23.478 14.157 26.2957 14.157C32.1555 14.157 33.2329 18.0131 33.2329 23.0246V33.2329Z" fill="white"/>
</svg>
