<svg width="42" height="30" viewBox="0 0 42 30" fill="none" xmlns="http://www.w3.org/2000/svg">
<path d="M41.6745 25.725V3.675C41.6745 1.6415 40.033 0 37.9995 0H3.675C1.6415 0 0 1.6415 0 3.675V25.725C0 27.7585 1.6415 29.4 3.675 29.4H37.9995C40.033 29.4 41.6745 27.7585 41.6745 25.725ZM38.465 3.4055C39.2735 4.214 38.8325 5.047 38.3915 5.4635L28.4445 14.5775L37.9995 24.5245C38.2935 24.8675 38.4895 25.4065 38.1465 25.774C37.828 26.166 37.093 26.1415 36.7745 25.8965L26.068 16.758L20.825 21.5355L15.6065 16.758L4.9 25.8965C4.5815 26.1415 3.8465 26.166 3.528 25.774C3.185 25.4065 3.381 24.8675 3.675 24.5245L13.23 14.5775L3.283 5.4635C2.842 5.047 2.401 4.214 3.2095 3.4055C4.018 2.597 4.851 2.989 5.537 3.577L20.825 15.925L36.1375 3.577C36.8235 2.989 37.6565 2.597 38.465 3.4055Z" fill="white"/>
</svg>
